<svg id="Layer_1" data-name="Layer 1" xmlns="http://www.w3.org/2000/svg" viewBox="0 0 187.84 26.5"><defs><style>.cls-1{fill:#fff;}</style></defs><title>logo_crunchbase_white</title><path class="cls-1" d="M187.78,17.08c0-5.44-3.71-8.61-8.6-8.61a8.53,8.53,0,0,0-8.83,8.22q0,0.34,0,.68a8.63,8.63,0,0,0,8.25,9h0.58a10.3,10.3,0,0,0,5.15-1.3,7,7,0,0,0,3.3-4.3H184c-0.88,1.58-2.45,2.35-4.67,2.35-3,0-5.23-2.35-5.23-4.59h13.6C187.78,17.89,187.78,17.49,187.78,17.08ZM174.1,15.37A4.75,4.75,0,0,1,179,11.65c2.57,0,4.68,1.54,5,3.72H174.1Z" transform="translate(0.06)"/><path class="cls-1" d="M13.63,19.62a5.16,5.16,0,1,1,.06-4.25h4a9,9,0,1,0,0,4.25H13.63Z" transform="translate(0.06)"/><path class="cls-1" d="M31.94,9.23a8.06,8.06,0,0,0-3.6-.76,6.69,6.69,0,0,0-3.62,1.11V9.08H21V25.77h3.7v-8A13.36,13.36,0,0,1,25,14.52V14.44a2.82,2.82,0,0,1,1.38-1.67,3.72,3.72,0,0,1,4,0Z" transform="translate(0.06)"/><path class="cls-1" d="M45.91,9.08v8a13.36,13.36,0,0,1-.23,3.25v0.08a2.82,2.82,0,0,1-1.36,1.66,3.72,3.72,0,0,1-4,0A2.82,2.82,0,0,1,39,20.41V20.33a13.36,13.36,0,0,1-.23-3.25v-8H35v9.1a11.14,11.14,0,0,0,.63,4.39,5.65,5.65,0,0,0,3,3,8.06,8.06,0,0,0,3.6.76,6.69,6.69,0,0,0,3.62-1.11v0.55h3.65V9.08H45.91Z" transform="translate(0.06)"/><path class="cls-1" d="M57.79,25.77v-8A13.36,13.36,0,0,1,58,14.51V14.43a2.82,2.82,0,0,1,1.36-1.66,3.72,3.72,0,0,1,4,0,2.82,2.82,0,0,1,1.36,1.66v0.08A13.36,13.36,0,0,1,65,17.77v8h3.67v-9.1a11.14,11.14,0,0,0-.6-4.39,5.65,5.65,0,0,0-3-3,8.06,8.06,0,0,0-3.6-.76,6.69,6.69,0,0,0-3.62,1.11V9.13h-3.7V25.77h3.67Z" transform="translate(0.06)"/><path class="cls-1" d="M85.67,19.62a5.16,5.16,0,1,1,.06-4.25h4a9,9,0,1,0,0,4.25H85.67Z" transform="translate(0.06)"/><path class="cls-1" d="M96.78,25.77v-8A13.36,13.36,0,0,1,97,14.52V14.44a2.82,2.82,0,0,1,1.38-1.67,3.72,3.72,0,0,1,4,0,2.82,2.82,0,0,1,1.36,1.66v0.08a13.36,13.36,0,0,1,.23,3.25v8h3.67v-9.1a11.14,11.14,0,0,0-.63-4.39,5.65,5.65,0,0,0-3-3,8.06,8.06,0,0,0-3.6-.76A6.69,6.69,0,0,0,96.8,9.62V0H93.11V25.77h3.67Z" transform="translate(0.06)"/><path class="cls-1" d="M120.88,8.47h-0.66a8.88,8.88,0,0,0-4.4,1.55V0h-3.65V25.77h3.67V24.83A9,9,0,1,0,120.88,8.47ZM126,18.11v0.16a5.12,5.12,0,0,1-.14.63h0a5.11,5.11,0,0,1-.25.65v0.08A5.19,5.19,0,0,1,122,22.46h0l-0.49.08h-0.11a5.08,5.08,0,0,1-.56,0h0a5.16,5.16,0,0,1-.7,0H120a5.11,5.11,0,0,1-1.31-.4h-0.1a5.18,5.18,0,0,1-1.16-.78h0a5.21,5.21,0,0,1-.91-1.09h0a5.16,5.16,0,0,1-.33-0.64h0a5.13,5.13,0,0,1,.06-4.25h0a5.17,5.17,0,0,1,4.14-2.93h0.53a5.17,5.17,0,0,1,5.1,5h0A5.15,5.15,0,0,1,126,18.11Z" transform="translate(0.06)"/><path class="cls-1" d="M167.38,14.07V14c0-2.72-2.09-5.49-6.75-5.54s-6.68,2.74-6.74,5.42h0v0.2h0c0.1,1.57,1,3.57,4.48,4.39l3.1,0.7c0.8,0.18,2.16.63,2.27,1.65h0c0,1.41-1.81,2.15-3.11,2.15-1.5,0-3.11-.83-3.11-2.16V20.72h-3.63v0c0,2.72,2.09,5.49,6.75,5.54s6.75-2.81,6.75-5.54v0h0c-0.08-1.59-.94-3.62-4.48-4.44l-3.1-.7c-0.68-.15-2.27-0.61-2.27-1.62,0-1.58,1.61-2.14,3.11-2.14s3.11,0.83,3.11,2.16v0.09h3.62Z" transform="translate(0.06)"/><path class="cls-1" d="M132.84,17.42a9,9,0,0,0,14,7.4v1h3.67V9.08h-3.65v1a8.88,8.88,0,0,0-4.4-1.55H141.8A9,9,0,0,0,132.84,17.42Zm3.79,0h0a5.17,5.17,0,0,1,5.16-5.16h0.53a5.17,5.17,0,0,1,4.14,2.93h0a5.13,5.13,0,0,1,.06,4.25h0a5.16,5.16,0,0,1-.33.64h0a5.21,5.21,0,0,1-.91,1.09h0a5.18,5.18,0,0,1-1.16.78H144a5.11,5.11,0,0,1-1.31.4h-0.16a5.16,5.16,0,0,1-.7,0h0a5.08,5.08,0,0,1-.56,0h-0.07l-0.49-.08h0a5.19,5.19,0,0,1-3.53-2.81V19.43a5.11,5.11,0,0,1-.25-0.65h0a5.12,5.12,0,0,1-.14-0.63V18A5.15,5.15,0,0,1,136.63,17.42Z" transform="translate(0.06)"/></svg>